<?xml version="1.0" ?><svg id="Слой_1" style="enable-background:new 0 0 200 200;" version="1.1" viewBox="0 0 200 200" xml:space="preserve" xmlns="http://www.w3.org/2000/svg" xmlns:xlink="http://www.w3.org/1999/xlink"><style type="text/css">
	.st0{fill:url(#SVGID_1_);}
	.st1{fill:url(#SVGID_2_);}
	.st2{fill:url(#SVGID_3_);}
	.st3{fill:url(#SVGID_4_);}
	.st4{fill:url(#SVGID_5_);}
</style><g><linearGradient gradientUnits="userSpaceOnUse" id="SVGID_1_" x1="122.1289" x2="142.7028" y1="154.6129" y2="154.6129"><stop offset="0" style="stop-color:#F7931E"/><stop offset="1" style="stop-color:#AF1259"/></linearGradient><circle class="st0" cx="132.4" cy="154.6" r="10.3"/><linearGradient gradientUnits="userSpaceOnUse" id="SVGID_2_" x1="88.2836" x2="103.0497" y1="25.9442" y2="25.9442"><stop offset="0" style="stop-color:#F7931E"/><stop offset="1" style="stop-color:#AF1259"/></linearGradient><circle class="st1" cx="95.7" cy="25.9" r="7.4"/><linearGradient gradientUnits="userSpaceOnUse" id="SVGID_3_" x1="151.4223" x2="159.8329" y1="161.3643" y2="161.3643"><stop offset="0" style="stop-color:#F7931E"/><stop offset="1" style="stop-color:#AF1259"/></linearGradient><circle class="st2" cx="155.6" cy="161.4" r="4.2"/><linearGradient gradientUnits="userSpaceOnUse" id="SVGID_4_" x1="21.8346" x2="30.2451" y1="64.9157" y2="64.9157"><stop offset="0" style="stop-color:#F7931E"/><stop offset="1" style="stop-color:#AF1259"/></linearGradient><circle class="st3" cx="26" cy="64.9" r="4.2"/><linearGradient gradientUnits="userSpaceOnUse" id="SVGID_5_" x1="19.5637" x2="177.1475" y1="106.1113" y2="106.1113"><stop offset="0" style="stop-color:#F7931E"/><stop offset="1" style="stop-color:#AF1259"/></linearGradient><path class="st4" d="M156.5,41.1c-15.2-11.1-34.5-12.3-50.4-5c-5.5,2.5-11.8,2.9-17.7,1.2c-14.5-4.3-30.8,0.8-40,13.9   c-2.9,4.1-4.8,8.5-5.8,13.1c-1.5,7.1-6.1,13.4-12.5,16.7c-3.2,1.6-5.9,4.2-7.9,7.5c-4.4,7.5-3.2,17.2,2.7,23.5   c0.1,0.1,0.2,0.2,0.3,0.3c4.1,4.2,5.8,10.1,4.6,15.9c-3.7,17.4,3.6,36.2,20,46.2c18.6,11.3,43,6.9,56.5-10.1   c2.2-2.8,4.1-5.8,5.5-8.9c5.8-12.5,16.8-21.7,30-25.7c10.8-3.3,20.6-10.3,27.3-20.5C183.6,87,178,56.8,156.5,41.1z M107,121.3   c-4.8,0-9.3-2.7-10.9-5.9c0,0-2.6,10.9-3.1,12.9c-1.9,7.4-7.6,14.8-8,15.4c-0.3,0.4-1,0.3-1.1-0.3c-0.1-0.9-1.6-10.3,0.1-17.9   c0.9-3.8,5.7-25.7,5.7-25.7s-1.4-3-1.4-7.5c0-7,3.8-12.2,8.6-12.2c4,0,6,3.2,6,7.1c0,4.3-2.6,10.7-3.9,16.7c-1.1,5,2.4,9.1,7,9.1   c8.4,0,14.1-11.5,14.1-25c0-10.3-6.6-18.1-18.5-18.1c-13.5,0-21.9,10.7-21.9,22.6c0,4.1,1.1,7,2.9,9.2c0.8,1,0.9,1.4,0.6,2.6   c-0.2,0.9-0.7,3-0.9,3.8c-0.3,1.2-1.2,1.6-2.2,1.2c-6.2-2.7-9.1-9.9-9.1-18C71,78,81.7,62,102.8,62c17,0,28.1,13,28.1,27   C131,107.5,121.3,121.3,107,121.3z"/></g></svg>